<svg width="25" height="24" viewBox="0 0 25 24" fill="none" xmlns="http://www.w3.org/2000/svg">
<g clip-path="url(#clip0_540_5244)">
<path d="M8.92061 0.789432C6.52264 1.62131 4.45463 3.20024 3.02035 5.29431C1.58606 7.38838 0.861096 9.8872 0.951942 12.4237C1.04279 14.9603 1.94465 17.4008 3.52507 19.3869C5.10548 21.373 7.28115 22.8 9.73249 23.4582C11.7198 23.971 13.802 23.9935 15.8 23.5238C17.61 23.1172 19.2833 22.2476 20.6562 21.0001C22.0851 19.662 23.1223 17.9597 23.6562 16.0763C24.2364 14.0282 24.3397 11.8743 23.9581 9.78006H12.7981V14.4094H19.2612C19.1321 15.1478 18.8553 15.8525 18.4474 16.4814C18.0395 17.1102 17.509 17.6504 16.8875 18.0694C16.0984 18.5917 15.2087 18.943 14.2756 19.1007C13.3399 19.2747 12.3801 19.2747 11.4444 19.1007C10.4959 18.9048 9.59869 18.5134 8.80999 17.9513C7.54277 17.0543 6.59125 15.7799 6.09124 14.3101C5.5829 12.8126 5.5829 11.1893 6.09124 9.69193C6.44716 8.64234 7.03555 7.68669 7.81249 6.89631C8.7016 5.97521 9.82723 5.3168 11.0659 4.99332C12.3046 4.66985 13.6084 4.6938 14.8344 5.06256C15.7921 5.35641 16.6679 5.87008 17.3919 6.56256C18.1206 5.83756 18.8481 5.11068 19.5744 4.38193C19.9494 3.99006 20.3581 3.61693 20.7275 3.21568C19.6222 2.18728 18.325 1.387 16.91 0.860682C14.3332 -0.0749615 11.5137 -0.100106 8.92061 0.789432Z" fill="white"/>
<path d="M8.92027 0.789367C11.5131 -0.100776 14.3326 -0.0762934 16.9096 0.858742C18.3249 1.38864 19.6216 2.19277 20.7253 3.22499C20.3503 3.62624 19.9546 4.00124 19.5721 4.39124C18.8447 5.11749 18.1178 5.84124 17.3915 6.56249C16.6676 5.87001 15.7918 5.35635 14.834 5.06249C13.6085 4.69244 12.3047 4.66711 11.0657 4.98926C9.82669 5.31141 8.70036 5.96861 7.81027 6.88874C7.03334 7.67912 6.44495 8.63477 6.08902 9.68437L2.20215 6.67499C3.59341 3.91604 6.0023 1.80566 8.92027 0.789367Z" fill="#E33629"/>
<path d="M1.17097 9.6563C1.37973 8.62087 1.72658 7.61816 2.20222 6.67505L6.0891 9.69192C5.58076 11.1893 5.58076 12.8126 6.0891 14.31C4.7941 15.31 3.49847 16.315 2.20222 17.325C1.01188 14.9556 0.648845 12.256 1.17097 9.6563Z" fill="#F8BD00"/>
<path d="M12.7977 9.77808H23.9577C24.3393 11.8723 24.236 14.0262 23.6558 16.0743C23.1219 17.9577 22.0847 19.66 20.6558 20.9981C19.4015 20.0193 18.1415 19.0481 16.8871 18.0693C17.509 17.6498 18.0398 17.1091 18.4477 16.4796C18.8556 15.85 19.1321 15.1446 19.2608 14.4056H12.7977C12.7958 12.8643 12.7977 11.3212 12.7977 9.77808Z" fill="#587DBD"/>
<path d="M2.2002 17.3251C3.49645 16.3251 4.79207 15.3201 6.08707 14.3101C6.58808 15.7804 7.54095 17.0549 8.80957 17.9513C9.60073 18.5107 10.4999 18.899 11.4496 19.0913C12.3853 19.2653 13.3451 19.2653 14.2808 19.0913C15.2139 18.9336 16.1036 18.5823 16.8927 18.0601C18.1471 19.0388 19.4071 20.0101 20.6614 20.9888C19.2887 22.237 17.6154 23.1073 15.8052 23.5144C13.8072 23.9841 11.7251 23.9616 9.73769 23.4488C8.16589 23.0291 6.69771 22.2893 5.4252 21.2757C4.07843 20.2062 2.97839 18.8587 2.2002 17.3251Z" fill="#319F43"/>
</g>
<defs>
<clipPath id="clip0_540_5244">
<rect width="24" height="24" fill="white" transform="translate(0.55957)"/>
</clipPath>
</defs>
</svg>
