<svg width="161" height="167" viewBox="0 0 161 167" fill="none" xmlns="http://www.w3.org/2000/svg">
<path d="M109.448 155.595C97.0361 155.595 86.9463 145.505 86.9463 133.093C86.9463 120.681 97.0361 110.591 109.448 110.591C121.86 110.591 131.95 120.681 131.95 133.093C131.95 145.505 121.86 155.595 109.448 155.595ZM109.448 122.038C103.348 122.038 98.3934 126.993 98.3934 133.093C98.3934 139.193 103.348 144.148 109.448 144.148C115.548 144.148 120.503 139.193 120.503 133.093C120.503 126.993 115.548 122.038 109.448 122.038Z" fill="url(#paint0_linear_1392_598)"/>
<path d="M115.074 99.3076H103.823V115.317H115.074V99.3076Z" fill="url(#paint1_linear_1392_598)"/>
<path d="M115.074 150.853H103.823V166.862H115.074V150.853Z" fill="url(#paint2_linear_1392_598)"/>
<path d="M143.233 138.718V127.467H127.223V138.718H143.233Z" fill="url(#paint3_linear_1392_598)"/>
<path d="M91.689 138.718V127.467H75.6793V138.718H91.689Z" fill="url(#paint4_linear_1392_598)"/>
<path d="M129.35 160.945L137.305 152.989L125.985 141.669L118.029 149.624L129.35 160.945Z" fill="url(#paint5_linear_1392_598)"/>
<path d="M92.9033 124.494L100.859 116.539L89.5384 105.218L81.5828 113.174L92.9033 124.494Z" fill="url(#paint6_linear_1392_598)"/>
<path d="M81.5805 152.997L89.5361 160.953L100.857 149.632L92.9011 141.677L81.5805 152.997Z" fill="url(#paint7_linear_1392_598)"/>
<path d="M118.027 116.546L125.982 124.502L137.303 113.181L129.347 105.226L118.027 116.546Z" fill="url(#paint8_linear_1392_598)"/>
<path d="M80.5542 72.1436L72.5986 64.188L8.94245 127.844L16.898 135.8L80.5542 72.1436Z" fill="url(#paint9_linear_1392_598)"/>
<path d="M96.4668 88.0557L88.5112 80.1001L24.855 143.756L32.8106 151.712L96.4668 88.0557Z" fill="url(#paint10_linear_1392_598)"/>
<path d="M112.376 8.48488L104.42 0.529297L72.5976 32.3516L80.5532 40.3072L112.376 8.48488Z" fill="url(#paint11_linear_1392_598)"/>
<path d="M128.297 24.3989L120.342 16.4434L99.6434 37.1417L107.599 45.0973L128.297 24.3989Z" fill="url(#paint12_linear_1392_598)"/>
<path d="M144.2 40.3159L136.245 32.3604L115.5 53.105L123.456 61.0606L144.2 40.3159Z" fill="url(#paint13_linear_1392_598)"/>
<path d="M160.138 56.2329L152.183 48.2773L120.36 80.0997L128.316 88.0552L160.138 56.2329Z" fill="url(#paint14_linear_1392_598)"/>
<path d="M107.589 61.0142L115.545 53.0586L107.589 45.103L99.6338 53.0586L107.589 61.0142Z" fill="url(#paint15_linear_1392_598)"/>
<path d="M120.336 32.3613L128.292 24.4058L104.425 0.539028L96.4697 8.49454L120.336 32.3613Z" fill="url(#paint16_linear_1392_598)"/>
<path d="M152.18 64.189L160.135 56.2334L136.269 32.3667L128.313 40.3222L152.18 64.189Z" fill="url(#paint17_linear_1392_598)"/>
<path d="M72.6353 64.2305H83.8862V32.3584H72.6353V64.2305Z" fill="url(#paint18_linear_1392_598)"/>
<path d="M128.32 88.0403V76.7896H96.4483V88.0403H128.32Z" fill="url(#paint19_linear_1392_598)"/>
<path d="M32.8101 151.705L8.94336 127.838L0.987785 135.793L24.8545 159.66L32.8101 151.705Z" fill="url(#paint20_linear_1392_598)"/>
<path d="M80.5521 72.1446L83.8881 64.2134H72.6372L80.5521 72.1446Z" fill="url(#paint21_linear_1392_598)"/>
<path d="M96.4453 76.7729L88.5142 80.0926L96.4453 88.0238V76.7729Z" fill="url(#paint22_linear_1392_598)"/>
<path d="M99.6357 37.1494V53.0609L107.6 45.097L99.6357 37.1494Z" fill="url(#paint23_linear_1392_598)"/>
<path d="M123.51 61.025H107.598L115.546 53.061L123.51 61.025Z" fill="url(#paint24_linear_1392_598)"/>
<defs>
<linearGradient id="paint0_linear_1392_598" x1="67.9768" y1="133.289" x2="151.475" y2="132.897" gradientUnits="userSpaceOnUse">
<stop stop-color="#F6A300"/>
<stop offset="0.23" stop-color="#F2890C"/>
<stop offset="0.52" stop-color="#EE7118"/>
<stop offset="0.78" stop-color="#EB621F"/>
<stop offset="1" stop-color="#EB5D22"/>
</linearGradient>
<linearGradient id="paint1_linear_1392_598" x1="67.8624" y1="107.517" x2="151.361" y2="107.124" gradientUnits="userSpaceOnUse">
<stop stop-color="#F6A300"/>
<stop offset="0.23" stop-color="#F2890C"/>
<stop offset="0.52" stop-color="#EE7118"/>
<stop offset="0.78" stop-color="#EB621F"/>
<stop offset="1" stop-color="#EB5D22"/>
</linearGradient>
<linearGradient id="paint2_linear_1392_598" x1="68.0914" y1="159.062" x2="151.606" y2="158.669" gradientUnits="userSpaceOnUse">
<stop stop-color="#F6A300"/>
<stop offset="0.23" stop-color="#F2890C"/>
<stop offset="0.52" stop-color="#EE7118"/>
<stop offset="0.78" stop-color="#EB621F"/>
<stop offset="1" stop-color="#EB5D22"/>
</linearGradient>
<linearGradient id="paint3_linear_1392_598" x1="67.9762" y1="133.403" x2="151.491" y2="133.011" gradientUnits="userSpaceOnUse">
<stop stop-color="#F6A300"/>
<stop offset="0.23" stop-color="#F2890C"/>
<stop offset="0.52" stop-color="#EE7118"/>
<stop offset="0.78" stop-color="#EB621F"/>
<stop offset="1" stop-color="#EB5D22"/>
</linearGradient>
<linearGradient id="paint4_linear_1392_598" x1="67.9771" y1="133.158" x2="151.476" y2="132.782" gradientUnits="userSpaceOnUse">
<stop stop-color="#F6A300"/>
<stop offset="0.23" stop-color="#F2890C"/>
<stop offset="0.52" stop-color="#EE7118"/>
<stop offset="0.78" stop-color="#EB621F"/>
<stop offset="1" stop-color="#EB5D22"/>
</linearGradient>
<linearGradient id="paint5_linear_1392_598" x1="68.0509" y1="151.572" x2="151.566" y2="151.196" gradientUnits="userSpaceOnUse">
<stop stop-color="#F6A300"/>
<stop offset="0.23" stop-color="#F2890C"/>
<stop offset="0.52" stop-color="#EE7118"/>
<stop offset="0.78" stop-color="#EB621F"/>
<stop offset="1" stop-color="#EB5D22"/>
</linearGradient>
<linearGradient id="paint6_linear_1392_598" x1="67.9003" y1="114.966" x2="151.399" y2="114.59" gradientUnits="userSpaceOnUse">
<stop stop-color="#F6A300"/>
<stop offset="0.23" stop-color="#F2890C"/>
<stop offset="0.52" stop-color="#EE7118"/>
<stop offset="0.78" stop-color="#EB621F"/>
<stop offset="1" stop-color="#EB5D22"/>
</linearGradient>
<linearGradient id="paint7_linear_1392_598" x1="68.05" y1="151.428" x2="151.565" y2="151.035" gradientUnits="userSpaceOnUse">
<stop stop-color="#F6A300"/>
<stop offset="0.23" stop-color="#F2890C"/>
<stop offset="0.52" stop-color="#EE7118"/>
<stop offset="0.78" stop-color="#EB621F"/>
<stop offset="1" stop-color="#EB5D22"/>
</linearGradient>
<linearGradient id="paint8_linear_1392_598" x1="67.8851" y1="115.137" x2="151.384" y2="114.761" gradientUnits="userSpaceOnUse">
<stop stop-color="#F6A300"/>
<stop offset="0.23" stop-color="#F2890C"/>
<stop offset="0.52" stop-color="#EE7118"/>
<stop offset="0.78" stop-color="#EB621F"/>
<stop offset="1" stop-color="#EB5D22"/>
</linearGradient>
<linearGradient id="paint9_linear_1392_598" x1="-0.188671" y1="99.8597" x2="159.27" y2="100.301" gradientUnits="userSpaceOnUse">
<stop stop-color="#F6A300"/>
<stop offset="0.23" stop-color="#F2890C"/>
<stop offset="0.52" stop-color="#EE7118"/>
<stop offset="0.78" stop-color="#EB621F"/>
<stop offset="1" stop-color="#EB5D22"/>
</linearGradient>
<linearGradient id="paint10_linear_1392_598" x1="-0.236298" y1="115.723" x2="159.222" y2="116.181" gradientUnits="userSpaceOnUse">
<stop stop-color="#F6A300"/>
<stop offset="0.23" stop-color="#F2890C"/>
<stop offset="0.52" stop-color="#EE7118"/>
<stop offset="0.78" stop-color="#EB621F"/>
<stop offset="1" stop-color="#EB5D22"/>
</linearGradient>
<linearGradient id="paint11_linear_1392_598" x1="0.0228788" y1="20.164" x2="159.498" y2="20.6055" gradientUnits="userSpaceOnUse">
<stop stop-color="#F6A300"/>
<stop offset="0.23" stop-color="#F2890C"/>
<stop offset="0.52" stop-color="#EE7118"/>
<stop offset="0.78" stop-color="#EB621F"/>
<stop offset="1" stop-color="#EB5D22"/>
</linearGradient>
<linearGradient id="paint12_linear_1392_598" x1="35.8467" y1="30.5511" x2="150.76" y2="30.8781" gradientUnits="userSpaceOnUse">
<stop stop-color="#F6A300"/>
<stop offset="0.23" stop-color="#F2890C"/>
<stop offset="0.52" stop-color="#EE7118"/>
<stop offset="0.78" stop-color="#EB621F"/>
<stop offset="1" stop-color="#EB5D22"/>
</linearGradient>
<linearGradient id="paint13_linear_1392_598" x1="40.0623" y1="46.4569" x2="155.171" y2="46.7839" gradientUnits="userSpaceOnUse">
<stop stop-color="#F6A300"/>
<stop offset="0.23" stop-color="#F2890C"/>
<stop offset="0.52" stop-color="#EE7118"/>
<stop offset="0.78" stop-color="#EB621F"/>
<stop offset="1" stop-color="#EB5D22"/>
</linearGradient>
<linearGradient id="paint14_linear_1392_598" x1="-0.10185" y1="67.7823" x2="159.357" y2="68.2237" gradientUnits="userSpaceOnUse">
<stop stop-color="#F6A300"/>
<stop offset="0.23" stop-color="#F2890C"/>
<stop offset="0.52" stop-color="#EE7118"/>
<stop offset="0.78" stop-color="#EB621F"/>
<stop offset="1" stop-color="#EB5D22"/>
</linearGradient>
<linearGradient id="paint15_linear_1392_598" x1="55.4165" y1="52.9163" x2="135.023" y2="53.1289" gradientUnits="userSpaceOnUse">
<stop stop-color="#F6A300"/>
<stop offset="0.23" stop-color="#F2890C"/>
<stop offset="0.52" stop-color="#EE7118"/>
<stop offset="0.78" stop-color="#EB621F"/>
<stop offset="1" stop-color="#EB5D22"/>
</linearGradient>
<linearGradient id="paint16_linear_1392_598" x1="0.0335205" y1="16.1225" x2="159.491" y2="16.5798" gradientUnits="userSpaceOnUse">
<stop stop-color="#F6A300"/>
<stop offset="0.23" stop-color="#F2890C"/>
<stop offset="0.52" stop-color="#EE7118"/>
<stop offset="0.78" stop-color="#EB621F"/>
<stop offset="1" stop-color="#EB5D22"/>
</linearGradient>
<linearGradient id="paint17_linear_1392_598" x1="-0.0393958" y1="47.8812" x2="159.419" y2="48.3391" gradientUnits="userSpaceOnUse">
<stop stop-color="#F6A300"/>
<stop offset="0.23" stop-color="#F2890C"/>
<stop offset="0.52" stop-color="#EE7118"/>
<stop offset="0.78" stop-color="#EB621F"/>
<stop offset="1" stop-color="#EB5D22"/>
</linearGradient>
<linearGradient id="paint18_linear_1392_598" x1="-0.0375848" y1="48.0737" x2="159.421" y2="48.5152" gradientUnits="userSpaceOnUse">
<stop stop-color="#F6A300"/>
<stop offset="0.23" stop-color="#F2890C"/>
<stop offset="0.52" stop-color="#EE7118"/>
<stop offset="0.78" stop-color="#EB621F"/>
<stop offset="1" stop-color="#EB5D22"/>
</linearGradient>
<linearGradient id="paint19_linear_1392_598" x1="-0.13274" y1="82.0879" x2="159.326" y2="82.5458" gradientUnits="userSpaceOnUse">
<stop stop-color="#F6A300"/>
<stop offset="0.23" stop-color="#F2890C"/>
<stop offset="0.52" stop-color="#EE7118"/>
<stop offset="0.78" stop-color="#EB621F"/>
<stop offset="1" stop-color="#EB5D22"/>
</linearGradient>
<linearGradient id="paint20_linear_1392_598" x1="-0.33013" y1="143.691" x2="159.128" y2="144.149" gradientUnits="userSpaceOnUse">
<stop stop-color="#F6A300"/>
<stop offset="0.23" stop-color="#F2890C"/>
<stop offset="0.52" stop-color="#EE7118"/>
<stop offset="0.78" stop-color="#EB621F"/>
<stop offset="1" stop-color="#EB5D22"/>
</linearGradient>
<linearGradient id="paint21_linear_1392_598" x1="-0.101129" y1="67.9582" x2="159.357" y2="68.4161" gradientUnits="userSpaceOnUse">
<stop stop-color="#F6A300"/>
<stop offset="0.23" stop-color="#F2890C"/>
<stop offset="0.52" stop-color="#EE7118"/>
<stop offset="0.78" stop-color="#EB621F"/>
<stop offset="1" stop-color="#EB5D22"/>
</linearGradient>
<linearGradient id="paint22_linear_1392_598" x1="-0.135176" y1="82.1367" x2="159.322" y2="82.5946" gradientUnits="userSpaceOnUse">
<stop stop-color="#F6A300"/>
<stop offset="0.23" stop-color="#F2890C"/>
<stop offset="0.52" stop-color="#EE7118"/>
<stop offset="0.78" stop-color="#EB621F"/>
<stop offset="1" stop-color="#EB5D22"/>
</linearGradient>
<linearGradient id="paint23_linear_1392_598" x1="73.562" y1="18.8547" x2="113.363" y2="58.887" gradientUnits="userSpaceOnUse">
<stop stop-color="#F6A300"/>
<stop offset="0.23" stop-color="#F2890C"/>
<stop offset="0.52" stop-color="#EE7118"/>
<stop offset="0.78" stop-color="#EB621F"/>
<stop offset="1" stop-color="#EB5D22"/>
</linearGradient>
<linearGradient id="paint24_linear_1392_598" x1="141.799" y1="87.0935" x2="101.755" y2="47.2807" gradientUnits="userSpaceOnUse">
<stop stop-color="#F6A300"/>
<stop offset="0.23" stop-color="#F2890C"/>
<stop offset="0.52" stop-color="#EE7118"/>
<stop offset="0.78" stop-color="#EB621F"/>
<stop offset="1" stop-color="#EB5D22"/>
</linearGradient>
</defs>
</svg>
