<svg width="658" height="165" viewBox="0 0 658 165" fill="none" xmlns="http://www.w3.org/2000/svg">
<path d="M57.3389 77.7232C59.3144 74.47 60.6346 71.2027 62.1739 68.0555C65.0499 62.1739 67.7821 56.2191 70.5921 50.3045C76.0754 38.7604 81.561 27.221 87.0632 15.6863C89.3663 10.8561 91.7402 6.05643 94.0127 1.21201C94.4158 0.351571 94.8732 0.0144652 95.8043 0.01918C101.646 0.0474685 107.49 0.0616128 113.331 0.0121078C114.51 0.00267829 114.826 0.427007 114.819 1.54676C114.777 7.38835 114.777 13.2299 114.819 19.0715C114.828 20.2149 114.296 21.0376 113.678 21.8792C107.115 30.8396 100.562 39.8071 93.9962 48.7651C85.8255 59.9155 77.6666 71.0754 69.4488 82.1928C68.6614 83.2583 68.5318 84.3262 68.5341 85.5426C68.5483 100.828 68.5436 116.111 68.5436 131.396C68.5436 131.957 68.5011 132.52 68.5506 133.077C68.652 134.175 68.2843 134.656 67.0891 134.649C60.6864 134.607 54.2838 134.586 47.8811 134.661C46.3535 134.68 46.4478 133.838 46.4478 132.836C46.4549 125.955 46.4526 119.072 46.4526 112.19C46.4526 103.228 46.4361 94.2649 46.4738 85.3021C46.4785 84.1211 46.1485 83.2159 45.4412 82.2564C37.2399 71.1296 29.0928 59.9627 20.9292 48.8052C14.371 39.8401 7.82922 30.8655 1.24034 21.924C0.389327 20.7665 -0.0137848 19.6019 0.000359451 18.1663C0.0522218 12.8056 0.0145037 7.44257 0.0262906 2.08189C0.0310054 0.0733995 0.0498645 0.0427538 1.93813 0.0356816C7.53926 0.01918 13.1428 0.068685 18.7439 0.000320914C19.9792 -0.0138234 20.5331 0.438794 21.0447 1.51612C28.0697 16.3063 35.156 31.0682 42.2046 45.849C47.2234 56.3747 52.2093 66.9146 57.3389 77.7208V77.7232Z" fill="#FF5609"/>
<path d="M619.712 105.398C622.062 99.6182 624.341 94.01 626.623 88.3994C631.107 77.3834 635.617 66.3791 640.049 55.3442C640.598 53.9769 641.249 53.3994 642.797 53.4394C647.194 53.5573 651.598 53.4701 655.999 53.4842C657.918 53.4913 657.918 53.5149 657.951 55.4951C657.951 55.5752 657.951 55.6554 657.951 55.7355C658.026 64.637 657.988 64.6205 653.63 74.2645C648.469 85.6837 643.375 97.1311 638.264 108.574C632.34 121.836 626.43 135.104 620.508 148.369C619.728 150.118 618.917 151.853 618.132 153.602C614.851 160.905 608.99 164.241 601.204 164.373C594.165 164.491 587.121 164.408 580.079 164.392C578.271 164.387 578.243 164.352 578.236 162.523C578.219 157.883 578.266 153.242 578.208 148.602C578.191 147.357 578.582 146.928 579.839 146.943C584.719 146.994 589.601 146.912 594.481 146.98C598.549 147.037 601.329 145.177 602.998 141.563C604.77 137.723 606.444 133.836 608.243 130.007C608.811 128.8 608.677 127.801 608.13 126.648C602.401 114.606 596.706 102.551 591.008 90.4951C587.05 82.1217 583.101 73.7436 579.15 65.3678C578.948 64.9364 578.641 64.4885 578.634 64.0429C578.578 60.844 578.585 57.645 578.575 54.446C578.573 53.5361 579.198 53.4819 579.884 53.4842C582.524 53.4913 585.164 53.4842 587.804 53.4842C590.124 53.4842 592.446 53.5361 594.766 53.4607C595.817 53.4277 596.279 53.8166 596.699 54.769C599.921 62.0698 603.229 69.3353 606.487 76.6219C610.69 86.0208 614.874 95.4268 619.075 104.826C619.132 104.953 619.297 105.033 619.709 105.401L619.712 105.398Z" fill="#FF5609"/>
<path d="M233.9 126.794C230.743 130.394 227.367 132.838 223.4 134.446C219.663 135.959 215.795 136.782 211.759 136.881C206.773 137.006 201.889 136.558 197.167 134.79C188.159 131.417 182.709 124.854 180.026 115.809C178.727 111.424 178.185 106.921 178.188 102.348C178.195 86.9849 178.19 71.6195 178.19 56.2564C178.19 55.6953 178.225 55.1343 178.188 54.5756C178.122 53.6303 178.567 53.3167 179.47 53.3191C185.231 53.3403 190.995 53.3403 196.757 53.3238C197.582 53.3215 197.919 53.6539 197.881 54.4648C197.85 55.1036 197.881 55.7449 197.881 56.3861C197.881 71.4309 197.872 86.4733 197.891 101.518C197.893 104.243 198.31 106.919 199.253 109.493C201.066 114.448 204.435 117.657 209.694 118.699C215.102 119.769 220.22 119.147 224.685 115.686C229.371 112.053 231.438 107.037 231.471 101.249C231.559 86.3672 231.5 71.4827 231.5 56.5982C231.5 56.1173 231.49 55.6388 231.5 55.1579C231.54 53.3733 231.542 53.3403 233.395 53.3356C238.758 53.3191 244.119 53.3191 249.482 53.3356C251.139 53.3427 251.177 53.3804 251.179 55.0848C251.193 63.0857 251.186 71.089 251.186 79.09C251.186 96.3743 251.186 113.659 251.186 130.943C251.186 131.424 251.191 131.902 251.186 132.383C251.158 134.448 251.158 134.465 249.069 134.47C244.588 134.481 240.107 134.488 235.623 134.465C233.949 134.455 233.928 134.415 233.904 132.702C233.878 130.896 233.9 129.09 233.9 126.792V126.794Z" fill="#FF5609"/>
<path d="M280.331 61.6791C282.955 58.9705 285.404 56.4174 288.596 54.6211C291.923 52.7517 295.473 51.6319 299.205 51.0992C304.296 50.3707 309.355 50.6301 314.367 51.8677C324.393 54.3453 331.09 60.4721 334.56 70.1633C336.244 74.8663 336.953 79.7578 336.974 84.7178C337.038 100.314 336.998 115.913 336.998 131.512C336.998 132.073 336.972 132.634 337 133.19C337.05 134.091 336.677 134.487 335.746 134.482C329.987 134.461 324.226 134.463 318.467 134.477C317.66 134.477 317.29 134.154 317.312 133.348C317.328 132.709 317.307 132.068 317.307 131.429C317.307 116.552 317.302 101.674 317.312 86.797C317.312 83.8173 316.882 80.9035 315.817 78.1265C313.632 72.4335 309.398 69.3712 303.379 68.6994C299.681 68.2845 296.095 68.6027 292.684 70.2458C286.951 73.011 283.922 77.7281 282.882 83.8408C282.51 86.0356 282.378 88.2656 282.382 90.5099C282.42 104.187 282.401 117.865 282.401 131.545C282.401 132.106 282.373 132.667 282.403 133.223C282.455 134.145 282.045 134.489 281.128 134.484C275.529 134.461 269.928 134.461 264.327 134.484C263.422 134.489 262.981 134.171 263.035 133.24C263.064 132.761 263.035 132.28 263.035 131.799C263.035 106.524 263.033 81.2477 263.04 55.9695C263.04 52.9874 262.731 53.3481 265.777 53.334C270.018 53.3151 274.256 53.3151 278.497 53.334C280.287 53.3434 280.303 53.3764 280.32 55.2246C280.338 57.3745 280.324 59.5268 280.324 61.6767L280.331 61.6791Z" fill="#FF5609"/>
<path d="M451.717 66.7163C452.372 65.1133 452.912 63.4466 453.706 61.9143C456.646 56.2448 461.674 53.7272 467.759 53.3948C473.025 53.1048 478.32 53.3594 483.603 53.3075C484.788 53.2958 485.093 53.7366 485.083 54.8493C485.038 59.5711 485.031 64.2929 485.086 69.0124C485.1 70.2783 484.649 70.6461 483.414 70.6343C477.813 70.5824 472.209 70.5683 466.606 70.6225C460.13 70.6862 455.632 74.3637 454.392 80.6367C454.039 82.4259 453.827 84.2482 453.829 86.1011C453.862 101.146 453.848 116.191 453.848 131.235C453.848 131.716 453.857 132.195 453.848 132.676C453.803 134.42 453.801 134.46 452.16 134.465C446.717 134.484 441.274 134.449 435.833 134.491C434.64 134.5 434.001 134.194 434.152 132.886C434.206 132.412 434.159 131.926 434.159 131.445C434.159 106.398 434.159 81.3486 434.159 56.3014C434.159 55.7404 434.19 55.1793 434.154 54.6206C434.098 53.7224 434.449 53.3123 435.387 53.317C440.35 53.3382 445.312 53.35 450.274 53.3123C451.516 53.3028 451.448 54.0643 451.448 54.8917C451.441 58.812 451.446 62.7347 451.446 66.655C451.535 66.6739 451.625 66.6928 451.717 66.7116V66.7163Z" fill="#FF5609"/>
<path d="M569.108 55.6796C569.108 55.1987 569.082 54.7178 569.108 54.2392C569.162 53.3057 568.723 52.9875 567.818 52.9922C562.377 53.0158 556.937 53.0158 551.498 52.9922C550.579 52.9875 550.178 53.3316 550.22 54.2534C550.253 54.9724 550.225 55.6937 550.225 56.4127C550.225 58.3599 550.225 60.3071 550.225 62.3251C549.478 62.1223 549.32 61.7263 549.084 61.4245C545.942 57.4217 541.951 54.6376 537.172 52.8955C530.444 50.4415 523.523 50.2388 516.632 51.5754C505.263 53.7819 497.274 60.4038 493.155 71.2572C489.079 81.9974 489.011 93.0017 492.483 103.886C495.595 113.636 501.927 120.618 511.75 124.086C518.113 126.33 524.643 126.79 531.295 125.633C537.007 124.638 542.17 122.469 546.451 118.485C547.703 117.318 548.773 115.953 550.223 114.35C550.223 118.572 550.4 122.386 550.169 126.175C549.968 129.496 549.633 132.827 548.497 136.036C546.88 140.6 543.947 143.869 539.473 145.691C534.051 147.9 528.471 148.105 522.804 146.785C517.938 145.651 514.084 142.919 510.942 139.133C510.26 138.315 509.567 137.952 508.502 137.966C504.582 138.018 500.661 138.03 496.741 137.964C495.442 137.943 495.091 138.45 495.131 139.652C495.199 141.649 495.225 143.655 495.124 145.649C495.053 147.033 495.517 148.108 496.371 149.138C500.001 153.527 504.492 156.832 509.591 159.237C520.268 164.272 531.354 165.083 542.705 161.898C550.371 159.749 556.882 155.826 561.72 149.324C566.993 142.236 569.061 134.159 569.084 125.508C569.15 102.231 569.108 78.9517 569.108 55.6749V55.6796ZM548.643 98.8645C547.003 104.086 543.412 107.587 538.575 109.812C535.444 111.252 532.104 112.092 528.653 111.905C519.339 112.24 512.201 106.29 510.178 97.5938C508.459 90.2082 508.438 82.8531 511.451 75.7716C513.945 69.9064 518.495 66.3821 524.801 65.3566C531.887 64.2039 538.24 65.9342 543.752 70.6042C546.277 72.7423 547.891 75.5146 548.782 78.6098C550.72 85.3472 550.763 92.1294 548.643 98.8645Z" fill="#FF5609"/>
<path d="M421.595 74.1875C417.794 64.0366 410.949 56.8866 400.621 53.2728C392.941 50.5854 385.065 50.0007 377.071 51.4128C363.398 53.8291 353.733 61.4175 348.61 74.3336C344.037 85.8659 344.084 97.7118 347.455 109.546C349.822 117.856 354.388 124.753 361.46 129.871C367.53 134.263 374.445 136.375 381.804 136.816C389.155 137.257 396.484 136.755 403.605 134.614C410.48 132.549 416.51 129.133 421.199 123.567C422.165 122.422 422.745 121.245 422.665 119.675C422.547 117.363 422.651 115.038 422.629 112.719C422.613 111 422.589 110.963 420.946 110.956C416.467 110.934 411.986 110.977 407.507 110.927C406.415 110.915 405.817 111.269 405.277 112.25C403.207 116.017 399.982 118.348 395.828 119.402C391.22 120.569 386.569 120.849 381.844 120.229C371.547 118.876 365.725 111.644 364.544 101.736C364.452 100.958 364.758 100.515 365.604 100.538C366.163 100.555 366.724 100.536 367.285 100.536C376.323 100.536 385.364 100.536 394.402 100.536C403.761 100.536 413.12 100.543 422.479 100.531C424.343 100.529 424.339 100.496 424.407 98.7372C424.43 98.0984 424.485 97.4619 424.511 96.8254C424.815 89.1167 424.334 81.4977 421.597 74.1898L421.595 74.1875ZM402.969 85.4911C396.818 85.51 390.67 85.4982 384.52 85.4982C378.53 85.4982 372.54 85.5076 366.55 85.4935C364.412 85.4887 364.369 85.3709 364.659 83.3459C365.986 74.0861 372.813 67.7659 381.802 66.7193C386.882 66.1276 391.684 66.7263 396.114 69.2228C401.72 72.3793 404.393 77.4218 404.697 83.7608C404.777 85.4392 404.68 85.4864 402.969 85.4911Z" fill="#FF5609"/>
<path d="M167.524 80.5713C165.077 71.4695 160.259 63.9589 152.555 58.4049C144.592 52.6623 135.485 50.6444 125.898 50.6774C121.786 50.6915 117.649 51.262 113.632 52.436C102.913 55.569 94.6907 61.7571 89.4998 71.776C86.2843 77.9829 84.818 84.6025 84.5163 91.5497C84.1933 98.9943 85.2329 106.182 88.1608 113.056C92.2673 122.7 99.1438 129.588 108.856 133.565C118.158 137.375 127.805 137.886 137.52 135.8C147.746 133.605 156.181 128.391 161.996 119.503C167.086 111.729 169.295 103.098 169.059 93.4733C169.238 89.3267 168.689 84.9089 167.522 80.5666L167.524 80.5713ZM145.353 108.348C141.728 114.676 136.216 118.334 129.007 119.046C122.428 119.697 116.555 117.87 111.763 113.03C108.684 109.923 106.763 106.21 105.728 102.049C104.073 95.3875 104.278 88.742 106.824 82.3276C109.589 75.3615 114.509 70.6397 121.989 69.0414C132.227 66.8514 142.1 71.5237 146.454 81.5261C148.166 85.4558 148.863 89.6025 148.91 94.263C148.807 98.9636 147.918 103.874 145.353 108.348Z" fill="#FF5609"/>
</svg>
