<svg width="206" height="53" viewBox="0 0 206 53" fill="none" xmlns="http://www.w3.org/2000/svg">
<path d="M18.0688 24.8834C18.687 23.8655 19.1 22.8432 19.5817 21.8585C20.4816 20.0182 21.3364 18.155 22.2157 16.3043C23.9313 12.6923 25.6477 9.08169 27.3693 5.47259C28.09 3.96123 28.8327 2.45946 29.5438 0.943683C29.6699 0.674457 29.813 0.568979 30.1044 0.570454C31.9321 0.579306 33.7607 0.583731 35.5885 0.568242C35.9573 0.565291 36.0561 0.69806 36.0539 1.04842C36.0406 2.87621 36.0406 4.704 36.0539 6.53179C36.0568 6.88953 35.8901 7.14695 35.6969 7.41028C33.6434 10.2139 31.5929 13.0198 29.5386 15.8227C26.9821 19.3116 24.4292 22.8034 21.8579 26.2819C21.6116 26.6153 21.571 26.9495 21.5717 27.3301C21.5762 32.1127 21.5747 36.8946 21.5747 41.6772C21.5747 41.8528 21.5614 42.0291 21.5769 42.2032C21.6086 42.5469 21.4935 42.6974 21.1196 42.6951C19.1162 42.6819 17.1129 42.6752 15.1096 42.6988C14.6316 42.7047 14.6611 42.4414 14.6611 42.1279C14.6633 39.9748 14.6626 37.821 14.6626 35.668C14.6626 32.8636 14.6574 30.0592 14.6692 27.2548C14.6707 26.8853 14.5674 26.6021 14.3461 26.3018C11.78 22.8203 9.23084 19.3263 6.67651 15.8352C4.62449 13.0301 2.57763 10.222 0.516023 7.42429C0.249747 7.06213 0.123617 6.69775 0.128042 6.24855C0.144269 4.57123 0.132468 2.89318 0.136156 1.21586C0.137631 0.587419 0.143532 0.57783 0.734355 0.575618C2.48691 0.570454 4.2402 0.585944 5.99275 0.564554C6.37926 0.560128 6.55259 0.701748 6.71265 1.03883C8.91072 5.66658 11.128 10.2855 13.3334 14.9103C14.9038 18.2037 16.4638 21.5015 18.0688 24.8827V24.8834Z" fill="white"/>
<path d="M194.031 33.5429C194.766 31.7342 195.479 29.9795 196.193 28.224C197.596 24.7771 199.007 21.334 200.394 17.8813C200.566 17.4535 200.769 17.2727 201.254 17.2853C202.63 17.3222 204.008 17.2949 205.385 17.2993C205.985 17.3015 205.985 17.3089 205.995 17.9285C205.995 17.9535 205.995 17.9786 205.995 18.0037C206.019 20.7889 206.007 20.7837 204.643 23.8013C203.029 27.3743 201.435 30.9561 199.836 34.5364C197.982 38.6862 196.133 42.8374 194.28 46.9879C194.036 47.5352 193.782 48.0781 193.536 48.6254C192.51 50.9105 190.676 51.9542 188.24 51.9956C186.037 52.0324 183.833 52.0066 181.63 52.0014C181.064 52 181.055 51.9889 181.053 51.4165C181.048 49.9649 181.063 48.5126 181.044 47.061C181.039 46.6715 181.162 46.5373 181.555 46.5417C183.082 46.5579 184.609 46.5321 186.136 46.5535C187.409 46.5712 188.279 45.9892 188.801 44.8585C189.356 43.6569 189.879 42.4406 190.442 41.2427C190.62 40.8651 190.578 40.5523 190.407 40.1916C188.614 36.4239 186.832 32.6518 185.05 28.8797C183.811 26.2597 182.576 23.6383 181.339 21.0176C181.276 20.8826 181.18 20.7424 181.178 20.603C181.16 19.6021 181.162 18.6012 181.159 17.6002C181.159 17.3155 181.354 17.2986 181.569 17.2993C182.395 17.3015 183.221 17.2993 184.047 17.2993C184.773 17.2993 185.499 17.3155 186.225 17.2919C186.554 17.2816 186.699 17.4033 186.83 17.7013C187.838 19.9857 188.873 22.259 189.893 24.5389C191.208 27.4797 192.517 30.4228 193.831 33.3636C193.849 33.4035 193.901 33.4285 194.03 33.5436L194.031 33.5429Z" fill="white"/>
<path d="M73.3132 40.2373C72.3256 41.3636 71.2693 42.1285 70.0279 42.6315C68.8588 43.1051 67.6484 43.3625 66.3857 43.3935C64.8256 43.4326 63.2973 43.2924 61.8199 42.7392C59.0015 41.6837 57.2961 39.6302 56.4567 36.8C56.0503 35.4281 55.8807 34.0193 55.8814 32.5883C55.8836 27.7813 55.8821 22.9736 55.8821 18.1666C55.8821 17.9911 55.8932 17.8155 55.8814 17.6407C55.8607 17.3449 56.0002 17.2468 56.2827 17.2476C58.0854 17.2542 59.8888 17.2542 61.6915 17.249C61.9497 17.2483 62.0552 17.3523 62.0434 17.606C62.0338 17.8059 62.0434 18.0066 62.0434 18.2072C62.0434 22.9146 62.0404 27.6213 62.0463 32.3287C62.047 33.1813 62.1776 34.0185 62.4726 34.824C63.0399 36.3744 64.0939 37.3783 65.7395 37.7043C67.4316 38.0392 69.0329 37.8445 70.4299 36.7617C71.8963 35.625 72.5432 34.0554 72.5535 32.2446C72.5808 27.5881 72.5624 22.9308 72.5624 18.2736C72.5624 18.1231 72.5594 17.9734 72.5624 17.8229C72.5749 17.2645 72.5756 17.2542 73.1554 17.2527C74.8335 17.2476 76.5108 17.2476 78.1888 17.2527C78.7074 17.2549 78.7192 17.2667 78.7199 17.8C78.7243 20.3035 78.7221 22.8076 78.7221 25.3111C78.7221 30.7192 78.7221 36.1273 78.7221 41.5355C78.7221 41.6859 78.7236 41.8357 78.7221 41.9861C78.7133 42.6323 78.7133 42.6374 78.0597 42.6389C76.6576 42.6426 75.2554 42.6448 73.8524 42.6375C73.3287 42.6345 73.3221 42.622 73.3147 42.0857C73.3066 41.5207 73.3132 40.9557 73.3132 40.2365V40.2373Z" fill="white"/>
<path d="M87.8414 19.8633C88.6624 19.0158 89.4288 18.217 90.4275 17.655C91.4682 17.07 92.5791 16.7197 93.7467 16.553C95.3399 16.325 96.9228 16.4062 98.491 16.7934C101.628 17.5687 103.724 19.4857 104.809 22.518C105.336 23.9895 105.558 25.52 105.565 27.072C105.585 31.952 105.572 36.8327 105.572 41.7135C105.572 41.889 105.564 42.0646 105.573 42.2386C105.588 42.5204 105.472 42.6443 105.18 42.6428C103.378 42.6362 101.576 42.6369 99.7737 42.6414C99.5214 42.6414 99.4056 42.5403 99.4123 42.288C99.4174 42.0882 99.4108 41.8875 99.4108 41.6876C99.4108 37.0326 99.4093 32.3776 99.4123 27.7225C99.4123 26.7902 99.278 25.8785 98.9446 25.0096C98.2609 23.2283 96.9361 22.2702 95.053 22.0599C93.8957 21.9301 92.7738 22.0297 91.7065 22.5438C89.9126 23.409 88.9648 24.885 88.6395 26.7976C88.523 27.4843 88.4817 28.1821 88.4831 28.8843C88.495 33.1639 88.489 37.4435 88.489 41.7238C88.489 41.8993 88.4802 42.0749 88.4898 42.249C88.506 42.5374 88.3777 42.6451 88.0907 42.6436C86.3389 42.6362 84.5864 42.6362 82.8338 42.6436C82.5506 42.6451 82.4127 42.5455 82.4296 42.2541C82.4385 42.1044 82.4296 41.9539 82.4296 41.8034C82.4296 33.8948 82.4289 25.9862 82.4311 18.0769C82.4311 17.1438 82.3345 17.2566 83.2875 17.2522C84.6144 17.2463 85.9406 17.2463 87.2676 17.2522C87.8274 17.2552 87.8326 17.2655 87.8377 17.8438C87.8436 18.5165 87.8392 19.1899 87.8392 19.8626L87.8414 19.8633Z" fill="white"/>
<path d="M141.467 21.4395C141.672 20.9379 141.841 20.4164 142.089 19.937C143.009 18.163 144.582 17.3753 146.486 17.2713C148.134 17.1806 149.791 17.2602 151.444 17.244C151.815 17.2403 151.91 17.3782 151.907 17.7264C151.893 19.2038 151.891 20.6812 151.908 22.1579C151.912 22.554 151.771 22.6691 151.385 22.6654C149.632 22.6492 147.879 22.6447 146.126 22.6617C144.099 22.6816 142.692 23.8323 142.304 25.7951C142.193 26.3549 142.127 26.9251 142.128 27.5048C142.138 32.2122 142.134 36.9196 142.134 41.627C142.134 41.7775 142.137 41.9272 142.134 42.0777C142.12 42.6235 142.119 42.6361 141.606 42.6376C139.902 42.6435 138.199 42.6324 136.497 42.6457C136.124 42.6486 135.924 42.5527 135.971 42.1434C135.988 41.9951 135.973 41.8432 135.973 41.6927C135.973 33.8556 135.973 26.0178 135.973 18.1807C135.973 18.0052 135.983 17.8296 135.972 17.6548C135.954 17.3738 136.064 17.2455 136.357 17.2469C137.91 17.2536 139.463 17.2573 141.015 17.2455C141.404 17.2425 141.383 17.4808 141.383 17.7397C141.381 18.9663 141.382 20.1937 141.382 21.4203C141.41 21.4262 141.438 21.4321 141.467 21.438V21.4395Z" fill="white"/>
<path d="M178.198 17.9862C178.198 17.8357 178.189 17.6852 178.198 17.5355C178.215 17.2434 178.077 17.1438 177.794 17.1453C176.092 17.1527 174.389 17.1527 172.688 17.1453C172.4 17.1438 172.275 17.2515 172.288 17.5399C172.298 17.7649 172.289 17.9906 172.289 18.2156C172.289 18.8248 172.289 19.4341 172.289 20.0655C172.056 20.002 172.006 19.8781 171.932 19.7837C170.949 18.5312 169.7 17.6601 168.205 17.115C166.1 16.3472 163.934 16.2838 161.778 16.702C158.221 17.3924 155.721 19.4643 154.433 22.8603C153.157 26.2208 153.136 29.6639 154.222 33.0695C155.196 36.1202 157.177 38.305 160.251 39.39C162.242 40.0922 164.285 40.236 166.366 39.8739C168.154 39.5626 169.769 38.884 171.108 37.6375C171.5 37.2723 171.835 36.8453 172.289 36.3437C172.289 37.6648 172.344 38.8582 172.272 40.0435C172.209 41.0828 172.104 42.1251 171.749 43.1289C171.243 44.5569 170.325 45.58 168.925 46.1502C167.229 46.8413 165.483 46.9055 163.709 46.4924C162.187 46.1376 160.981 45.2828 159.998 44.0982C159.785 43.8422 159.568 43.7286 159.234 43.733C158.008 43.7493 156.781 43.753 155.555 43.7323C155.148 43.7257 155.038 43.8843 155.051 44.2604C155.072 44.8852 155.08 45.5129 155.049 46.1369C155.026 46.5699 155.172 46.9062 155.439 47.2286C156.575 48.602 157.98 49.6361 159.575 50.3885C162.916 51.964 166.385 52.2177 169.936 51.2212C172.335 50.5485 174.372 49.3211 175.886 47.2868C177.536 45.0688 178.183 42.5418 178.19 39.8348C178.211 32.5517 178.198 25.2678 178.198 17.9847V17.9862ZM171.794 31.4984C171.281 33.1322 170.158 34.2275 168.644 34.9238C167.665 35.3745 166.619 35.6371 165.539 35.5788C162.625 35.6835 160.392 33.8218 159.759 31.1008C159.221 28.7899 159.215 26.4885 160.157 24.2728C160.938 22.4376 162.361 21.3349 164.334 21.014C166.551 20.6533 168.539 21.1947 170.264 22.6559C171.054 23.3249 171.559 24.1924 171.838 25.1609C172.444 27.2689 172.458 29.391 171.794 31.4984Z" fill="white"/>
<path d="M132.042 23.7771C130.853 20.601 128.711 18.3638 125.479 17.2331C123.076 16.3922 120.612 16.2093 118.11 16.6511C113.832 17.4072 110.808 19.7815 109.205 23.8229C107.774 27.4312 107.789 31.1377 108.844 34.8405C109.584 37.4405 111.013 39.5988 113.226 41.2001C115.125 42.5743 117.289 43.2352 119.592 43.3731C121.891 43.511 124.185 43.3539 126.413 42.6842C128.564 42.038 130.451 40.9692 131.918 39.2278C132.22 38.8693 132.402 38.5012 132.376 38.01C132.34 37.2864 132.372 36.5591 132.365 35.8333C132.36 35.2956 132.353 35.2838 131.839 35.2816C130.437 35.2749 129.035 35.2882 127.634 35.2727C127.292 35.269 127.105 35.3797 126.936 35.6865C126.288 36.8652 125.279 37.5947 123.98 37.9244C122.538 38.2895 121.082 38.3773 119.604 38.1833C116.382 37.7599 114.56 35.497 114.191 32.3968C114.162 32.1534 114.258 32.0147 114.523 32.0221C114.698 32.0273 114.873 32.0213 115.049 32.0213C117.877 32.0213 120.705 32.0213 123.533 32.0213C126.462 32.0213 129.39 32.0236 132.318 32.0199C132.902 32.0191 132.9 32.0088 132.922 31.4586C132.929 31.2587 132.946 31.0595 132.954 30.8604C133.049 28.4484 132.899 26.0644 132.042 23.7779L132.042 23.7771ZM126.214 27.3139C124.289 27.3198 122.366 27.3162 120.441 27.3162C118.567 27.3162 116.693 27.3191 114.818 27.3147C114.149 27.3132 114.136 27.2763 114.227 26.6427C114.642 23.7454 116.778 21.7679 119.591 21.4404C121.18 21.2552 122.683 21.4426 124.069 22.2237C125.823 23.2114 126.659 24.7891 126.754 26.7725C126.78 27.2977 126.749 27.3125 126.214 27.3139Z" fill="white"/>
<path d="M52.5447 25.7746C51.7791 22.9267 50.2714 20.5767 47.8609 18.8389C45.3693 17.0421 42.5199 16.4107 39.5201 16.421C38.2337 16.4254 36.9392 16.6039 35.6823 16.9713C32.3284 17.9516 29.7557 19.8878 28.1314 23.0226C27.1253 24.9647 26.6666 27.0359 26.5721 29.2096C26.4711 31.539 26.7964 33.788 27.7125 35.9388C28.9974 38.9564 31.149 41.1117 34.1879 42.356C37.0985 43.548 40.1168 43.708 43.1565 43.0552C46.3562 42.3685 48.9954 40.7369 50.815 37.9562C52.4075 35.5235 53.0987 32.8232 53.0249 29.8115C53.081 28.5141 52.9091 27.1318 52.544 25.7731L52.5447 25.7746ZM45.6075 34.4658C44.4731 36.4456 42.7486 37.5903 40.493 37.8131C38.4343 38.0167 36.5969 37.445 35.0974 35.9307C34.1341 34.9585 33.5329 33.7968 33.2091 32.4949C32.6913 30.4105 32.7555 28.3312 33.5521 26.3241C34.4173 24.1445 35.9567 22.6671 38.2971 22.167C41.5006 21.4817 44.5897 22.9437 45.952 26.0733C46.4875 27.3029 46.7058 28.6004 46.7206 30.0586C46.6881 31.5294 46.4101 33.0658 45.6075 34.4658Z" fill="white"/>
</svg>
