<svg width="115" height="135" viewBox="0 0 115 135" fill="none" xmlns="http://www.w3.org/2000/svg">
<path d="M57.3389 77.7232C59.3144 74.47 60.6346 71.2027 62.1739 68.0555C65.0499 62.1739 67.7821 56.2191 70.5921 50.3045C76.0754 38.7604 81.561 27.221 87.0632 15.6863C89.3663 10.8561 91.7402 6.05643 94.0127 1.21201C94.4158 0.351571 94.8732 0.0144652 95.8043 0.01918C101.646 0.0474685 107.49 0.0616128 113.331 0.0121078C114.51 0.00267829 114.826 0.427007 114.819 1.54676C114.777 7.38835 114.777 13.2299 114.819 19.0715C114.828 20.2149 114.296 21.0376 113.678 21.8792C107.115 30.8396 100.562 39.807 93.9962 48.7651C85.8255 59.9155 77.6666 71.0754 69.4488 82.1928C68.6614 83.2583 68.5318 84.3262 68.5341 85.5426C68.5483 100.828 68.5436 116.111 68.5436 131.396C68.5436 131.957 68.5011 132.52 68.5507 133.077C68.652 134.175 68.2843 134.656 67.0891 134.649C60.6864 134.607 54.2838 134.586 47.8811 134.661C46.3535 134.68 46.4478 133.838 46.4478 132.836C46.4549 125.955 46.4526 119.072 46.4526 112.19C46.4526 103.228 46.4361 94.2649 46.4738 85.3021C46.4785 84.1211 46.1485 83.2159 45.4412 82.2564C37.2399 71.1296 29.0928 59.9627 20.9292 48.8052C14.371 39.8401 7.82922 30.8655 1.24034 21.924C0.389327 20.7665 -0.0137848 19.6019 0.000359451 18.1663C0.0522218 12.8056 0.0145037 7.44257 0.0262906 2.08189C0.0310054 0.0733995 0.0498645 0.0427538 1.93813 0.0356816C7.53926 0.01918 13.1428 0.068685 18.7439 0.000320914C19.9792 -0.0138234 20.5331 0.438794 21.0447 1.51612C28.0697 16.3063 35.156 31.0682 42.2046 45.849C47.2234 56.3747 52.2093 66.9146 57.3389 77.7208V77.7232Z" fill="#FF5609"/>
</svg>
